<svg xmlns="http://www.w3.org/2000/svg" viewBox="0 0 280.34 165.20" width="280.34" height="165.20"><path fill="currentColor" d="M-153.62,137.44C-124.62,157.17 -70.60,165.20 -38.01,151.66C-20.98,144.90 -9.09,128.47 8.63,123.37C30.73,117.08 52.06,133.92 74.35,129.10C98.16,125.59 110.51,99.98 133.35,95.02C151.82,90.84 170.10,100.46 188.57,99.45C203.31,99.09 216.80,90.64 222.56,76.99C229.61,60.70 227.79,41.01 239.08,26.41C250.32,11.54 266.95,0.11 271.97,-18.74C280.34,-47.79 276.24,-84.91 253.77,-106.51C243.99,-115.40 230.49,-117.96 217.74,-120.17C105.65,-139.46 -9.28,-156.98 -122.39,-158.38C-128.52,-157.96 -134.30,-156.65 -138.72,-153.46C-149.02,-145.88 -149.94,-130.96 -151.60,-119.07C-154.47,-94.28 -155.98,-70.57 -158.29,-45.67C-161.03,9.23 -175.86,95.18 -147.47,130.31C-136.64,136.98 -123.23,130.35 -112.42,125.65"/></svg>