<svg xmlns="http://www.w3.org/2000/svg" viewBox="0 0 124.46 26.45" width="124.46" height="26.45"><path fill="none" stroke="currentColor" stroke-width="0.90" stroke-linecap="butt" stroke-linejoin="miter" d="M1.40,23.50C8.16,23.26 14.92,22.98 21.68,22.66C25.42,22.49 29.24,22.28 32.70,20.86C36.65,19.25 40.12,15.74 40.03,11.31C39.99,9.01 38.82,6.81 36.87,5.59C32.43,2.82 27.74,6.96 27.52,11.32C27.35,14.82 29.51,18.12 32.36,20.14C37.40,23.72 44.75,23.63 49.71,19.94C53.64,17.01 55.83,12.00 55.58,7.13C55.46,4.87 52.76,3.85 51.19,5.49C49.02,7.78 48.08,11.38 49.11,14.43C50.61,18.88 55.46,21.69 60.15,21.53C65.76,21.33 70.88,17.42 73.54,12.58C74.46,10.89 74.77,8.88 74.21,7.03C72.49,1.40 65.13,3.38 63.73,7.80C62.56,11.51 64.73,15.63 67.91,17.89C71.08,20.14 75.04,20.94 78.88,21.57C93.46,24.01 108.28,25.05 123.06,24.68"/></svg>